<svg width="15" height="15" viewBox="0 0 15 15" fill="none" xmlns="http://www.w3.org/2000/svg">
<path d="M13.3929 0.0625H1.60714C0.719531 0.0625 0 0.776035 0 1.65625V13.3438C0 14.224 0.719531 14.9375 1.60714 14.9375H13.3929C14.2805 14.9375 15 14.224 15 13.3438V1.65625C15 0.776035 14.2805 0.0625 13.3929 0.0625ZM13.3929 13.3438H1.60714V1.65625H13.3929V13.3438ZM12.1921 5.31776L6.4134 11.0023C6.25587 11.1572 6.00147 11.1562 5.84521 11L2.80567 7.96139C2.64941 7.80517 2.65041 7.55289 2.80798 7.3979L3.56866 6.64964C3.72619 6.49468 3.98059 6.49567 4.13685 6.65193L6.13882 8.65331L10.8716 3.9977C11.0291 3.84274 11.2835 3.84374 11.4398 3.99996L12.1943 4.75427C12.3506 4.91052 12.3496 5.1628 12.1921 5.31776Z" fill="black"/>
</svg>
