<svg width="222" height="29" viewBox="0 0 222 29" fill="none" xmlns="http://www.w3.org/2000/svg">
<path d="M10.1706 28.36C8.22661 28.36 6.34261 28.084 4.51861 27.532C2.71861 26.98 1.29061 26.248 0.234609 25.336L1.85461 21.7C2.88661 22.516 4.14661 23.188 5.63461 23.716C7.14661 24.22 8.65861 24.472 10.1706 24.472C12.0426 24.472 13.4346 24.172 14.3466 23.572C15.2826 22.972 15.7506 22.18 15.7506 21.196C15.7506 20.476 15.4866 19.888 14.9586 19.432C14.4546 18.952 13.8066 18.58 13.0146 18.316C12.2226 18.052 11.1426 17.752 9.77461 17.416C7.85461 16.96 6.29461 16.504 5.09461 16.048C3.91861 15.592 2.89861 14.884 2.03461 13.924C1.19461 12.94 0.774609 11.62 0.774609 9.964C0.774609 8.572 1.14661 7.312 1.89061 6.184C2.65861 5.032 3.79861 4.12 5.31061 3.448C6.84661 2.776 8.71861 2.44 10.9266 2.44C12.4626 2.44 13.9746 2.632 15.4626 3.016C16.9506 3.4 18.2346 3.952 19.3146 4.672L17.8386 8.308C16.7346 7.66 15.5826 7.168 14.3826 6.832C13.1826 6.496 12.0186 6.328 10.8906 6.328C9.04261 6.328 7.66261 6.64 6.75061 7.264C5.86261 7.888 5.41861 8.716 5.41861 9.748C5.41861 10.468 5.67061 11.056 6.17461 11.512C6.70261 11.968 7.36261 12.328 8.15461 12.592C8.94661 12.856 10.0266 13.156 11.3946 13.492C13.2666 13.924 14.8026 14.38 16.0026 14.86C17.2026 15.316 18.2226 16.024 19.0626 16.984C19.9266 17.944 20.3586 19.24 20.3586 20.872C20.3586 22.264 19.9746 23.524 19.2066 24.652C18.4626 25.78 17.3226 26.68 15.7866 27.352C14.2506 28.024 12.3786 28.36 10.1706 28.36ZM36.1232 26.956C35.5952 27.388 34.9472 27.712 34.1792 27.928C33.4352 28.144 32.6432 28.252 31.8032 28.252C29.6912 28.252 28.0592 27.7 26.9072 26.596C25.7552 25.492 25.1792 23.884 25.1792 21.772V12.52H22.0112V8.92H25.1792V4.528H29.6792V8.92H34.8272V12.52H29.6792V21.664C29.6792 22.6 29.9072 23.32 30.3632 23.824C30.8192 24.304 31.4792 24.544 32.3432 24.544C33.3512 24.544 34.1912 24.28 34.8632 23.752L36.1232 26.956ZM58.437 8.776V28H54.153V25.552C53.433 26.416 52.533 27.088 51.453 27.568C50.373 28.024 49.209 28.252 47.961 28.252C45.393 28.252 43.365 27.544 41.877 26.128C40.413 24.688 39.681 22.564 39.681 19.756V8.776H44.181V19.144C44.181 20.872 44.565 22.168 45.333 23.032C46.125 23.872 47.241 24.292 48.681 24.292C50.289 24.292 51.561 23.8 52.497 22.816C53.457 21.808 53.937 20.368 53.937 18.496V8.776H58.437ZM83.157 1.288V28H78.837V25.516C78.093 26.428 77.169 27.112 76.065 27.568C74.985 28.024 73.785 28.252 72.465 28.252C70.617 28.252 68.949 27.844 67.461 27.028C65.997 26.212 64.845 25.06 64.005 23.572C63.165 22.06 62.745 20.332 62.745 18.388C62.745 16.444 63.165 14.728 64.005 13.24C64.845 11.752 65.997 10.6 67.461 9.784C68.949 8.968 70.617 8.56 72.465 8.56C73.737 8.56 74.901 8.776 75.957 9.208C77.013 9.64 77.913 10.288 78.657 11.152V1.288H83.157ZM73.005 24.4C74.085 24.4 75.057 24.16 75.921 23.68C76.785 23.176 77.469 22.468 77.973 21.556C78.477 20.644 78.729 19.588 78.729 18.388C78.729 17.188 78.477 16.132 77.973 15.22C77.469 14.308 76.785 13.612 75.921 13.132C75.057 12.628 74.085 12.376 73.005 12.376C71.925 12.376 70.953 12.628 70.089 13.132C69.225 13.612 68.541 14.308 68.037 15.22C67.533 16.132 67.281 17.188 67.281 18.388C67.281 19.588 67.533 20.644 68.037 21.556C68.541 22.468 69.225 23.176 70.089 23.68C70.953 24.16 71.925 24.4 73.005 24.4ZM107.116 18.496C107.116 18.808 107.092 19.252 107.044 19.828H91.9598C92.2238 21.244 92.9078 22.372 94.0118 23.212C95.1398 24.028 96.5318 24.436 98.1878 24.436C100.3 24.436 102.04 23.74 103.408 22.348L105.82 25.12C104.956 26.152 103.864 26.932 102.544 27.46C101.224 27.988 99.7358 28.252 98.0798 28.252C95.9678 28.252 94.1078 27.832 92.4998 26.992C90.8918 26.152 89.6438 24.988 88.7558 23.5C87.8918 21.988 87.4598 20.284 87.4598 18.388C87.4598 16.516 87.8798 14.836 88.7198 13.348C89.5838 11.836 90.7718 10.66 92.2838 9.82C93.7958 8.98 95.4998 8.56 97.3958 8.56C99.2678 8.56 100.936 8.98 102.4 9.82C103.888 10.636 105.04 11.8 105.856 13.312C106.696 14.8 107.116 16.528 107.116 18.496ZM97.3958 12.16C95.9558 12.16 94.7318 12.592 93.7238 13.456C92.7398 14.296 92.1398 15.424 91.9238 16.84H102.832C102.64 15.448 102.052 14.32 101.068 13.456C100.084 12.592 98.8598 12.16 97.3958 12.16ZM122.346 8.56C124.77 8.56 126.714 9.268 128.178 10.684C129.642 12.1 130.374 14.2 130.374 16.984V28H125.874V17.56C125.874 15.88 125.478 14.62 124.686 13.78C123.894 12.916 122.766 12.484 121.302 12.484C119.646 12.484 118.338 12.988 117.378 13.996C116.418 14.98 115.938 16.408 115.938 18.28V28H111.438V8.776H115.722V11.26C116.466 10.372 117.402 9.7 118.53 9.244C119.658 8.788 120.93 8.56 122.346 8.56ZM147.639 26.956C147.111 27.388 146.463 27.712 145.695 27.928C144.951 28.144 144.159 28.252 143.319 28.252C141.207 28.252 139.575 27.7 138.423 26.596C137.271 25.492 136.695 23.884 136.695 21.772V12.52H133.527V8.92H136.695V4.528H141.195V8.92H146.343V12.52H141.195V21.664C141.195 22.6 141.423 23.32 141.879 23.824C142.335 24.304 142.995 24.544 143.859 24.544C144.867 24.544 145.707 24.28 146.379 23.752L147.639 26.956Z" fill="white"/>
<path d="M151.773 2.8H156.453V24.04H169.629V28H151.773V2.8ZM172.891 8.776H177.391V28H172.891V8.776ZM175.159 5.608C174.343 5.608 173.659 5.356 173.107 4.852C172.555 4.324 172.279 3.676 172.279 2.908C172.279 2.14 172.555 1.504 173.107 0.999998C173.659 0.471999 174.343 0.207999 175.159 0.207999C175.975 0.207999 176.659 0.459999 177.211 0.963998C177.763 1.444 178.039 2.056 178.039 2.8C178.039 3.592 177.763 4.264 177.211 4.816C176.683 5.344 175.999 5.608 175.159 5.608ZM201.298 8.776L193.054 28H188.41L180.166 8.776H184.846L190.822 23.032L196.978 8.776H201.298ZM221.655 18.496C221.655 18.808 221.631 19.252 221.583 19.828H206.499C206.763 21.244 207.447 22.372 208.551 23.212C209.679 24.028 211.071 24.436 212.727 24.436C214.839 24.436 216.579 23.74 217.947 22.348L220.359 25.12C219.495 26.152 218.403 26.932 217.083 27.46C215.763 27.988 214.275 28.252 212.619 28.252C210.507 28.252 208.647 27.832 207.039 26.992C205.431 26.152 204.183 24.988 203.295 23.5C202.431 21.988 201.999 20.284 201.999 18.388C201.999 16.516 202.419 14.836 203.259 13.348C204.123 11.836 205.311 10.66 206.823 9.82C208.335 8.98 210.039 8.56 211.935 8.56C213.807 8.56 215.475 8.98 216.939 9.82C218.427 10.636 219.579 11.8 220.395 13.312C221.235 14.8 221.655 16.528 221.655 18.496ZM211.935 12.16C210.495 12.16 209.271 12.592 208.263 13.456C207.279 14.296 206.679 15.424 206.463 16.84H217.371C217.179 15.448 216.591 14.32 215.607 13.456C214.623 12.592 213.399 12.16 211.935 12.16Z" fill="#F67280"/>
</svg>
